<svg width="122" height="25" viewBox="0 0 122 25" fill="none" xmlns="http://www.w3.org/2000/svg">
<path fill-rule="evenodd" clip-rule="evenodd" d="M18.7026 6.20768C18.7026 9.35957 16.1646 11.9148 13.0336 11.9148C9.90254 11.9148 7.36449 9.35957 7.36449 6.20768C7.36449 3.05642 9.90254 0.501221 13.0336 0.501221C16.1646 0.501221 18.7026 3.05642 18.7026 6.20768ZM5.66914 13.3416C2.53818 13.3416 0 15.896 0 19.0479C0 22.1996 2.53818 24.7545 5.66914 24.7545C8.80022 24.7545 11.3385 22.1996 11.3385 19.0479C11.3385 15.896 8.80022 13.3416 5.66914 13.3416ZM20.398 13.3411C17.267 13.3411 14.7289 15.896 14.7289 19.0479C14.7289 22.1996 17.267 24.7545 20.398 24.7545C23.5289 24.7545 26.0671 22.1996 26.0671 19.0479C26.0671 15.896 23.5289 13.3411 20.398 13.3411Z" fill="#B3B7BC"/>
<path fill-rule="evenodd" clip-rule="evenodd" d="M46.0137 18.9822C46.0876 19.8288 46.7603 20.9064 47.9258 20.9064H48.6077C48.872 20.9064 49.0887 20.6883 49.0887 20.422V5.32571H49.0857C49.0719 5.07139 48.8632 4.8677 48.6077 4.8677H46.4947C46.2392 4.8677 46.0305 5.07139 46.0163 5.32571H46.0137V6.55237C44.7191 4.94603 42.678 4.2793 40.6311 4.2793C35.9786 4.2793 32.207 8.07871 32.207 12.7658C32.207 17.4532 35.9786 21.2527 40.6311 21.2527V21.2531C42.678 21.2531 44.9086 20.4532 46.0135 18.9803L46.0137 18.9822ZM40.6394 18.2825C37.6804 18.2825 35.2816 15.8128 35.2816 12.7658C35.2816 9.71933 37.6804 7.24951 40.6394 7.24951C43.5983 7.24951 45.9968 9.71933 45.9968 12.7658C45.9968 15.8128 43.5983 18.2825 40.6394 18.2825Z" fill="#B3B7BC"/>
<path fill-rule="evenodd" clip-rule="evenodd" d="M80.4395 18.9817C80.5134 19.8283 81.1861 20.9059 82.3516 20.9059H83.0335C83.2978 20.9059 83.5142 20.6878 83.5142 20.4215V5.32523H83.5115C83.4977 5.0709 83.2887 4.86721 83.0335 4.86721H80.9205C80.665 4.86721 80.4562 5.0709 80.4419 5.32523H80.4395V6.55189C79.1447 4.94554 77.1036 4.27881 75.0568 4.27881C70.4043 4.27881 66.6328 8.07822 66.6328 12.7653C66.6328 17.4527 70.4043 21.2522 75.0568 21.2522V21.2526C77.1036 21.2526 79.3344 20.4527 80.4392 18.9798L80.4395 18.9817ZM75.0649 18.282C72.1062 18.282 69.7073 15.8123 69.7073 12.7653C69.7073 9.71884 72.1062 7.24903 75.0649 7.24903C78.024 7.24903 80.4225 9.71884 80.4225 12.7653C80.4225 15.8123 78.024 18.282 75.0649 18.282Z" fill="#B3B7BC"/>
<path fill-rule="evenodd" clip-rule="evenodd" d="M118.923 18.9817C118.997 19.8283 119.67 20.9059 120.835 20.9059H121.517C121.782 20.9059 121.998 20.6878 121.998 20.4215V5.32523H121.995C121.982 5.0709 121.773 4.86721 121.517 4.86721H119.404C119.149 4.86721 118.94 5.0709 118.926 5.32523H118.923V6.55189C117.629 4.94554 115.588 4.27881 113.541 4.27881C108.888 4.27881 105.117 8.07822 105.117 12.7653C105.117 17.4527 108.888 21.2522 113.541 21.2522V21.2526C115.588 21.2526 117.818 20.4527 118.923 18.9798L118.923 18.9817ZM113.549 18.282C110.59 18.282 108.191 15.8123 108.191 12.7653C108.191 9.71884 110.59 7.24903 113.549 7.24903C116.508 7.24903 118.907 9.71884 118.907 12.7653C118.907 15.8123 116.508 18.282 113.549 18.282Z" fill="#B3B7BC"/>
<path fill-rule="evenodd" clip-rule="evenodd" d="M102.444 19.5018L102.443 11.6902H102.443C102.443 7.28677 99.6856 4.31616 95.2882 4.31616C93.1891 4.31616 91.4683 5.53896 90.8606 6.58937C90.7292 5.76803 90.2963 4.90469 88.954 4.90469H88.2698C88.0052 4.90469 87.7891 5.12294 87.7891 5.38925V19.0205V19.0226V20.4868H87.7918C87.8056 20.7407 88.0145 20.9447 88.2701 20.9447H90.383C90.4154 20.9447 90.4471 20.9408 90.4778 20.9348C90.4918 20.9321 90.5048 20.9265 90.5184 20.9227C90.5341 20.9178 90.5504 20.914 90.5654 20.9078C90.5842 20.9 90.6012 20.8894 90.6187 20.8796C90.6273 20.8743 90.6363 20.8706 90.6446 20.8651C90.6657 20.8514 90.685 20.8349 90.7037 20.818C90.7067 20.815 90.7104 20.8129 90.7135 20.8101C90.7345 20.7896 90.7537 20.767 90.7707 20.7436L90.7708 20.7432C90.8237 20.67 90.8559 20.5819 90.8611 20.4868H90.8638V11.5691C90.8638 9.20412 92.7672 7.28677 95.115 7.28677C97.4626 7.28677 99.366 9.20412 99.366 11.5691L99.3679 19.0231L99.3684 19.0205C99.3684 19.0271 99.3694 19.0339 99.3694 19.041V20.4868H99.3723C99.3862 20.7407 99.5949 20.9447 99.8504 20.9447H101.964C101.996 20.9447 102.028 20.9408 102.058 20.9348C102.071 20.9324 102.082 20.9274 102.095 20.9239C102.112 20.9189 102.13 20.9145 102.146 20.9078C102.163 20.9006 102.179 20.8906 102.196 20.8813C102.206 20.8756 102.216 20.8715 102.226 20.8651C102.245 20.8522 102.263 20.8366 102.28 20.8211C102.285 20.817 102.29 20.8139 102.294 20.8097C102.314 20.7902 102.332 20.7692 102.348 20.7472C102.35 20.7455 102.351 20.7442 102.352 20.7425C102.404 20.67 102.436 20.5825 102.441 20.4881C102.441 20.4874 102.442 20.4868 102.442 20.4868H102.445V19.5021L102.444 19.5018Z" fill="#B3B7BC"/>
<path fill-rule="evenodd" clip-rule="evenodd" d="M54.1356 16.8198C55.5462 17.8043 57.0859 18.2824 58.5655 18.2824C59.9751 18.2824 61.4324 17.5462 61.4324 16.2649C61.4324 14.5542 58.2569 14.2881 56.2619 13.605C54.2664 12.9219 52.5477 11.5098 52.5477 9.22307C52.5477 5.72398 55.6426 4.27881 58.5313 4.27881C60.3615 4.27881 62.2499 4.88679 63.4742 5.75773C63.8958 6.07957 63.639 6.44907 63.639 6.44907L62.4704 8.13053C62.339 8.31992 62.1093 8.48355 61.7796 8.27857C61.45 8.07371 60.2936 7.24916 58.5313 7.24916C56.7688 7.24916 55.7072 8.06908 55.7072 9.08535C55.7072 10.304 57.087 10.6873 58.7031 11.1027C61.5195 11.8675 64.5918 12.7867 64.5918 16.2649C64.5918 19.3479 61.7293 21.2531 58.5655 21.2531C56.168 21.2531 54.1268 20.5646 52.4148 19.2991C52.0581 18.9395 52.3073 18.6057 52.3073 18.6057L53.4702 16.9327C53.7068 16.6199 54.0051 16.729 54.1356 16.8198Z" fill="#B3B7BC"/>
</svg>
