<svg width="120" height="21" viewBox="0 0 120 21" fill="none" xmlns="http://www.w3.org/2000/svg">
<path d="M11.874 10.785C12.8285 10.8619 13.6303 11.2465 14.3175 11.9773C15.0048 12.7081 15.3484 13.7081 15.3484 14.9773C15.3484 16.5157 14.8521 17.7849 13.8212 18.708C12.7903 19.6311 11.3395 20.0926 9.3923 20.0926H0V1.86201H9.35412C10.9959 1.86201 12.3322 2.32355 13.3248 3.20815C14.3175 4.13122 14.8139 5.32352 14.8139 6.8235C14.8139 7.97734 14.5084 8.86195 13.8594 9.55425C13.2103 10.2466 12.5612 10.5927 11.8358 10.6696L11.874 10.785ZM4.46707 9.4004H8.36144C9.0105 9.4004 9.54502 9.2081 9.965 8.82349C10.3468 8.43887 10.5759 7.97734 10.5759 7.3235C10.5759 6.74658 10.385 6.32351 10.0032 5.97736C9.62138 5.63121 9.12504 5.47736 8.55234 5.47736H4.46707V9.4004ZM8.59052 16.4773C9.27776 16.4773 9.85046 16.285 10.2323 15.9388C10.6141 15.5927 10.805 15.0927 10.805 14.4388C10.805 13.8234 10.6141 13.3619 10.1941 13.0158C9.81228 12.6696 9.27776 12.4773 8.66688 12.4773H4.46707V16.4773H8.59052ZM30.8113 20.0926H26.497V18.7849C25.4279 19.9388 24.0153 20.5157 22.3353 20.5157C20.7318 20.5157 19.4718 19.9772 18.5173 18.9388C17.5628 17.9003 17.0665 16.5157 17.0665 14.8234V6.43889H21.3427V13.9004C21.3427 14.708 21.5717 15.3619 21.9917 15.8619C22.4117 16.3619 22.9844 16.5926 23.6717 16.5926C24.5498 16.5926 25.237 16.285 25.7334 15.6696C26.2297 15.0542 26.4588 14.0927 26.4588 12.785V6.43889H30.7731L30.8113 20.0926ZM44.1362 20.0926H32.6822V19.2849L38.0655 9.9004H32.8349V6.43889H44.0598V7.24658L38.6764 16.6311H44.098V20.0926H44.1362ZM57.4228 20.0926H46.007V19.2849L51.3522 9.9004H46.1215V6.43889H57.3465V7.24658L51.9631 16.6311H57.3847L57.4228 20.0926ZM63.8371 9.66963H71.664V13.5927H63.8371V20.1311H59.37V1.86201H72.3513V5.78505H63.8371V9.66963ZM103.315 14.4004H93.3885C93.6557 16.0927 94.9157 17.0542 96.7865 17.0542C98.2755 17.0542 99.7645 16.4773 100.872 15.5927L102.514 18.4772C100.986 19.7849 99.0391 20.5157 96.7865 20.5157C92.2431 20.5157 89.1505 17.7465 89.1505 13.285C89.1505 11.1696 89.8377 9.43886 91.2122 8.09272C92.5867 6.74658 94.3048 6.05428 96.3284 6.05428C98.2755 6.05428 99.9173 6.70812 101.254 8.05426C102.59 9.4004 103.277 11.1312 103.315 13.3234V14.4004ZM94.5721 10.1312C94.0375 10.5158 93.6557 11.0542 93.4648 11.7081H99.0391C98.8482 11.0158 98.5046 10.4773 98.0083 10.0927C97.5119 9.74655 96.9392 9.55425 96.3284 9.55425C95.6793 9.55425 95.1066 9.74656 94.5721 10.1312ZM87.5088 14.4004H77.5819C77.8492 16.0927 79.1091 17.0542 80.98 17.0542C82.469 17.0542 83.958 16.4773 85.0652 15.5927L86.707 18.4772C85.1798 19.7849 83.2326 20.5157 80.98 20.5157C76.4365 20.5157 73.3439 17.7465 73.3439 13.285C73.3439 11.1696 74.0312 9.43886 75.4057 8.09272C76.7801 6.74658 78.4983 6.05428 80.5218 6.05428C82.469 6.05428 84.1107 6.70812 85.447 8.05426C86.7833 9.4004 87.4706 11.1312 87.5088 13.3234V14.4004ZM78.7655 10.1312C78.231 10.5158 77.8492 11.0542 77.6583 11.7081H83.2326C83.0417 11.0158 82.6981 10.4773 82.2017 10.0927C81.7054 9.74655 81.1327 9.55425 80.5218 9.55425C79.8727 9.55425 79.3 9.74656 78.7655 10.1312ZM120 20.0926H115.686V19.0157C114.578 20.0157 113.204 20.5157 111.486 20.5157C109.653 20.5157 108.088 19.8234 106.79 18.4772C105.492 17.1311 104.842 15.4004 104.842 13.285C104.842 11.1696 105.492 9.43886 106.79 8.09272C108.088 6.74658 109.653 6.05428 111.486 6.05428C113.204 6.05428 114.617 6.55428 115.686 7.55427V0.515869H120V20.0926ZM114.731 15.8234C115.38 15.1696 115.724 14.3234 115.724 13.285C115.724 12.285 115.38 11.4388 114.731 10.7465C114.082 10.0927 113.28 9.74656 112.402 9.74656C111.448 9.74656 110.684 10.0927 110.073 10.7465C109.462 11.4004 109.157 12.2465 109.157 13.285C109.157 14.3234 109.462 15.208 110.073 15.8619C110.684 16.5157 111.448 16.8234 112.402 16.8234C113.28 16.8234 114.044 16.4773 114.731 15.8234Z" fill="#B3B7BC"/>
</svg>
