<svg width="99" height="33" viewBox="0 0 99 33" fill="none" xmlns="http://www.w3.org/2000/svg">
<path d="M41.9381 17.5733C41.9381 22.2487 38.3072 25.6939 33.8514 25.6939C29.3955 25.6939 25.7646 22.2487 25.7646 17.5733C25.7646 12.8649 29.3955 9.45264 33.8514 9.45264C38.3072 9.45264 41.9381 12.8649 41.9381 17.5733ZM38.3981 17.5733C38.3981 14.6516 36.2937 12.6526 33.8514 12.6526C31.409 12.6526 29.3046 14.6516 29.3046 17.5733C29.3046 20.4656 31.409 22.494 33.8514 22.494C36.2937 22.494 38.3981 20.462 38.3981 17.5733Z" fill="#B3B7BC"/>
<path d="M59.3839 17.5733C59.3839 22.2487 55.753 25.6939 51.2972 25.6939C46.8413 25.6939 43.2104 22.2487 43.2104 17.5733C43.2104 12.8686 46.8413 9.45264 51.2972 9.45264C55.753 9.45264 59.3839 12.8649 59.3839 17.5733ZM55.8439 17.5733C55.8439 14.6516 53.7395 12.6526 51.2972 12.6526C48.8548 12.6526 46.7504 14.6516 46.7504 17.5733C46.7504 20.4656 48.8548 22.494 51.2972 22.494C53.7395 22.494 55.8439 20.462 55.8439 17.5733Z" fill="#B3B7BC"/>
<path d="M76.1022 9.94324V24.5223C76.1022 30.5194 72.5913 32.9688 68.4408 32.9688C64.5337 32.9688 62.1822 30.3363 61.2954 28.1835L64.3774 26.8911C64.9262 28.2128 66.271 29.7725 68.4371 29.7725C71.0939 29.7725 72.7403 28.1213 72.7403 25.0129V23.845H72.6168C71.8245 24.8298 70.298 25.6902 68.3717 25.6902C64.3411 25.6902 60.6484 22.1535 60.6484 17.6026C60.6484 13.0187 64.3411 9.45264 68.3717 9.45264C70.2943 9.45264 71.8208 10.313 72.6168 11.2686H72.7403V9.9469H76.1022V9.94324ZM72.9911 17.6026C72.9911 14.7431 71.0976 12.6526 68.6879 12.6526C66.2455 12.6526 64.1993 14.7431 64.1993 17.6026C64.1993 20.4327 66.2455 22.494 68.6879 22.494C71.0976 22.494 72.9911 20.4327 72.9911 17.6026Z" fill="#B3B7BC"/>
<path d="M81.6451 1.39795V25.196H78.1924V1.39795H81.6451Z" fill="#B3B7BC"/>
<path d="M95.1011 20.2465L97.8488 22.0917C96.962 23.4134 94.8249 25.6907 91.1323 25.6907C86.5529 25.6907 83.1328 22.1247 83.1328 17.5701C83.1328 12.7409 86.5819 9.44946 90.7361 9.44946C94.9194 9.44946 96.9656 12.8032 97.6344 14.6155L98.0015 15.5381L87.2252 20.0341C88.0503 21.6634 89.3332 22.4944 91.1323 22.4944C92.935 22.4944 94.1853 21.6011 95.1011 20.2465ZM86.6437 17.3248L93.8473 14.3116C93.4511 13.2974 92.259 12.5908 90.8561 12.5908C89.057 12.5908 86.5529 14.1908 86.6437 17.3248Z" fill="#B3B7BC"/>
<path d="M12.6952 15.4608V12.0156H24.2202C24.3328 12.616 24.391 13.3263 24.391 14.0951C24.391 16.68 23.6895 19.8762 21.4289 22.1535C19.23 24.4601 16.4206 25.6903 12.6989 25.6903C5.80063 25.6903 0 20.03 0 13.081C0 6.13195 5.80063 0.47168 12.6989 0.47168C16.5151 0.47168 19.2337 1.98011 21.2762 3.94619L18.8629 6.37726C17.3982 4.99331 15.4138 3.9169 12.6952 3.9169C7.65785 3.9169 3.71807 8.00651 3.71807 13.081C3.71807 18.1555 7.65785 22.2451 12.6952 22.2451C15.9626 22.2451 17.8235 20.9234 19.0156 19.7225C19.9824 18.7486 20.6184 17.3573 20.8692 15.4571L12.6952 15.4608Z" fill="#B3B7BC"/>
</svg>
