<svg width="133" height="33" viewBox="0 0 133 33" fill="none" xmlns="http://www.w3.org/2000/svg">
<path d="M0 7.26359C0 7.26359 3.3042 20.9284 3.83153 23.1464C4.44703 25.7352 5.55605 26.688 8.75354 26.0454L10.8168 17.5733C11.3397 15.4689 11.6904 13.9686 12.0266 11.8279H12.0857C12.3219 13.9897 12.6582 15.4752 13.0885 17.5807C13.0885 17.5807 13.9284 21.4268 14.3585 23.4469C14.7898 25.4663 15.9899 26.739 19.1218 26.0461L24.038 7.26503H20.0688L18.3904 15.385C17.9392 17.7486 17.5297 19.5954 17.214 21.7577H17.158C16.8711 19.617 16.5062 17.8433 16.0474 15.5405L14.2999 7.26503H10.1643L8.29505 15.332C7.76547 17.7833 7.27015 19.7628 6.95517 21.8517H6.89813C6.57556 19.8844 6.14593 17.3967 5.68069 15.0237C5.68069 15.0237 4.57011 9.25386 4.18045 7.26503L0.000386466 7.26557L0 7.26359ZM37.838 7.26359V26.0447H41.617V22.0566V7.2627H37.838V7.26359ZM91.0617 7.26359V21.1187C91.0617 23.029 91.4179 24.3674 92.18 25.185C92.8458 25.9001 93.9425 26.3632 95.2566 26.3632C96.3739 26.3632 97.4732 26.1493 97.9913 25.9545L97.9426 22.9741C97.5571 23.0698 97.1136 23.1464 96.507 23.1464C95.2197 23.1464 94.788 22.3143 94.788 20.5992V15.2982H98.0792V11.7049H94.788V7.26365H91.0615L91.0617 7.26359ZM29.3928 11.6175C27.0442 11.6175 25.18 12.283 24.1637 12.8756L24.9074 15.4458C25.8375 14.854 27.3183 14.3641 28.7204 14.3641C31.0419 14.3581 31.4214 15.6889 31.4214 16.5424V16.7443C26.363 16.7366 23.1678 18.5032 23.1678 22.1041C23.1678 24.3027 24.7943 26.3631 27.6227 26.3631C29.3637 26.3631 30.8198 25.6623 31.6925 24.5395H31.7781C31.7781 24.5395 32.3559 26.978 35.5396 26.0455C35.3724 25.0306 35.318 23.9484 35.318 22.6451V17.6279C35.318 14.4301 33.9652 11.6175 29.3928 11.6175L29.3928 11.6175ZM51.9984 11.6175C49.6336 11.6175 48.5709 12.8269 47.9266 13.8531H47.8706V11.936H44.2642V26.0456H48.0633V17.7709C48.0633 17.383 48.1072 16.9728 48.2414 16.6159C48.5561 15.7828 49.3242 14.8082 50.5504 14.8082C52.0833 14.8082 52.8006 16.1162 52.8006 18.0039V26.0455H56.5956V17.6706C56.5956 17.3003 56.6459 16.8543 56.7539 16.5269C57.0659 15.5792 57.8939 14.8081 59.0337 14.8081C60.5878 14.8081 61.3336 16.0933 61.3336 18.3145V26.0455H65.1313V17.7354C65.1313 13.3527 62.9263 11.6175 60.4373 11.6175C59.3349 11.6175 58.4649 11.8965 57.6782 12.3839C57.017 12.7934 56.4251 13.3752 55.9077 14.1413H55.8517C55.2497 12.6207 53.8374 11.6175 51.9977 11.6175L51.9984 11.6175ZM72.8604 11.6175C70.5124 11.6175 68.6485 12.283 67.6314 12.8756L68.3761 15.4458C69.3052 14.854 70.787 14.3641 72.1884 14.3641C74.5083 14.3581 74.8887 15.6889 74.8887 16.5424V16.7443C69.8309 16.7366 66.6354 18.5032 66.6354 22.1041C66.6354 24.3027 68.2628 26.3631 71.0926 26.3631C72.8322 26.3631 74.2888 25.6623 75.1599 24.5395H75.2458C75.2458 24.5395 75.8236 26.978 79.0077 26.0455C78.8402 25.0306 78.7865 23.9484 78.7865 22.6451V17.6279C78.7865 14.4301 77.4333 11.6175 72.8604 11.6175L72.8604 11.6175ZM88.6371 11.6175C87.1824 11.6175 85.5272 12.5652 84.8325 14.5968H84.7264V11.9358H81.3064V26.0454H85.2051V18.8204C85.2051 18.4306 85.2285 18.0908 85.2896 17.7791C85.578 16.2657 86.725 15.2982 88.3712 15.2982C88.8231 15.2982 89.1466 15.3476 89.4965 15.3986V11.7047C89.2031 11.6449 89.0024 11.6173 88.6373 11.6173L88.6371 11.6175ZM31.5435 19.2446V21.0048C31.5435 21.2651 31.521 21.5338 31.4495 21.7687C31.1571 22.7463 30.1536 23.5724 28.8992 23.5724C27.8534 23.5724 27.0226 22.9733 27.0226 21.7061C27.0226 19.7678 29.1368 19.232 31.5436 19.2446H31.5435ZM75.0111 19.2446V21.0048C75.0111 21.2651 74.9882 21.5338 74.9172 21.7687C74.6247 22.7463 73.6216 23.5724 72.3672 23.5724C71.3212 23.5724 70.4903 22.9733 70.4903 21.7061C70.4903 19.7678 72.6044 19.232 75.0112 19.2446H75.0111Z" fill="#B3B7BC"/>
<path d="M118.51 0.47168C117.29 0.47168 116.321 1.15927 116.321 1.99634L117.062 10.4636C117.143 10.9737 117.763 11.3672 118.511 11.3672C119.261 11.3662 119.878 10.973 119.962 10.4636L120.706 1.99634C120.706 1.15935 119.734 0.471752 118.512 0.471752L118.51 0.47168ZM106.436 7.26367C105.803 7.27884 105.083 7.76281 104.626 8.56366C104.014 9.63006 104.122 10.8218 104.838 11.2399L112.473 14.8285C112.95 15.0075 113.598 14.6656 113.973 14.0129C113.973 14.0129 113.973 14.0127 113.973 14.0126C114.35 13.3567 114.321 12.6192 113.924 12.292L107.028 7.41052C106.849 7.30583 106.648 7.25873 106.437 7.26378L106.436 7.26367ZM130.585 7.26367C130.373 7.25862 130.172 7.30573 129.994 7.41042L123.097 12.2919C122.702 12.619 122.673 13.3566 123.048 14.0125L123.048 14.0128C123.425 14.6655 124.071 15.0074 124.548 14.8284L132.186 11.2399C132.905 10.8219 133.008 9.63019 132.4 8.56373C131.941 7.76286 131.22 7.27892 130.587 7.26375L130.585 7.26367ZM112.759 18.435C112.66 18.4336 112.564 18.449 112.474 18.4831L104.839 22.0673C104.123 22.4872 104.015 23.6794 104.627 24.747C105.237 25.8113 106.313 26.3172 107.029 25.8999L113.925 21.0221C114.322 20.691 114.351 19.9537 113.974 19.2984L113.978 19.2999C113.673 18.7661 113.187 18.4407 112.759 18.4348L112.759 18.435ZM124.265 18.435C123.838 18.4408 123.353 18.7662 123.047 19.3L123.05 19.2985C122.675 19.9538 122.704 20.6911 123.098 21.0222L129.995 25.9C130.71 26.3174 131.787 25.8114 132.4 24.7471C133.008 23.6795 132.905 22.4873 132.186 22.0674L124.549 18.4832C124.46 18.4491 124.364 18.4337 124.265 18.4351L124.265 18.435ZM118.509 21.9441C117.762 21.945 117.144 22.3368 117.063 22.8456L116.322 31.3125C116.322 32.1509 117.291 32.8371 118.511 32.8371C119.734 32.8371 120.705 32.1509 120.705 31.3125L119.963 22.8456C119.879 22.3368 119.262 21.9451 118.512 21.9441H118.509H118.509Z" fill="#B3B7BC"/>
</svg>
