<svg width="138" height="27" viewBox="0 0 138 27" fill="none" xmlns="http://www.w3.org/2000/svg">
<path d="M120.642 0.493896C120.145 0.493896 119.743 0.899271 119.743 1.39913V7.74803H136.391L128.809 0.494482L120.642 0.493896Z" fill="#B3B7BC"/>
<path d="M137.001 9.66809C137.001 9.16705 136.602 8.76343 136.102 8.76343H129.801V25.5348L136.998 17.8939L137.001 9.66809Z" fill="#B3B7BC"/>
<path d="M127.891 26.1429C128.386 26.1429 128.789 25.737 128.789 25.236V18.8894H112.14L119.723 26.1418L127.891 26.1429Z" fill="#B3B7BC"/>
<path d="M111.532 16.9688C111.532 17.4693 111.934 17.877 112.432 17.877H118.732V1.10449L111.533 8.74299L111.532 16.9688Z" fill="#B3B7BC"/>
<path d="M35.2228 3.5555V11.3007H24.5112V3.5555L20.6099 3.552V23.081H24.5112V14.6913H35.2228V23.081H39.1306V3.5555H35.2228Z" fill="#B3B7BC"/>
<path d="M87.125 3.55542V23.0763H104.241L102.073 19.6397H91.0374V14.6912H101.724V11.3811H91.0374V6.91155H102.055L104.178 3.55542H87.125Z" fill="#B3B7BC"/>
<path d="M6.10796 3.55078C2.04971 3.55078 0 6.0361 0 9.65238V16.9421C0 21.127 2.64143 23.081 6.08769 23.081L18.3279 23.0798L16.0588 19.5102H6.84387C4.88624 19.5102 4.03337 18.7975 4.03337 16.5904V9.97667C4.03337 7.84307 4.75134 7.01074 6.89598 7.01074H16.1549L18.3337 3.55078H6.10796Z" fill="#B3B7BC"/>
<path d="M70.0017 3.54641C67.6579 3.54641 65.2556 4.96551 65.2556 8.61562V9.55351C65.2556 13.3588 67.567 14.8105 69.8795 14.8204H77.9966C78.8397 14.8204 79.5246 14.9616 79.5246 16.397L79.5235 18.0553C79.502 19.3449 78.8634 19.64 77.9677 19.64H67.2891L65.1016 23.0766H78.219C81.3821 23.0766 83.5296 21.4913 83.5296 17.8295V16.4839C83.5296 12.9435 81.5344 11.2707 78.4407 11.2707H70.6901C69.8309 11.2707 69.2322 11.0344 69.2322 9.7524V8.40213C69.2322 7.31025 69.6427 6.91188 70.6438 6.91188L80.8135 6.9078L82.939 3.54175L70.0017 3.54641Z" fill="#B3B7BC"/>
<path d="M50.4652 3.55591L41.2734 23.0803H45.6177L47.408 19.0481H57.3965L59.181 23.0803H63.5444L54.3312 3.55591H50.4652ZM52.3927 7.60963L55.9246 15.7247H48.8833L52.3927 7.60963Z" fill="#B3B7BC"/>
</svg>
